HIERARCHY
ROOT Hips
{
	OFFSET 0.00000 0.00000 0.00000
	CHANNELS 6 Xposition Yposition Zposition Zrotation Yrotation Xrotation 
	JOINT LHipJoint
	{
		OFFSET 0 0 0
		CHANNELS 3 Zrotation Yrotation Xrotation
		JOINT LeftHip
		{
			OFFSET 1.57338 -1.94743 0.52196
			CHANNELS 3 Zrotation Yrotation Xrotation
			JOINT LeftKnee
			{
				OFFSET 2.60333 -7.15259 0.00000
				CHANNELS 3 Zrotation Yrotation Xrotation
				JOINT LeftAnkle
				{
					OFFSET 2.77855 -7.63400 0.00000
					CHANNELS 3 Zrotation Yrotation Xrotation
					JOINT LeftToe
					{
						OFFSET 0.19847 -0.54529 2.28466
						CHANNELS 3 Zrotation Yrotation Xrotation
						End Site
						{
							OFFSET 0.00000 -0.00000 1.17993
						}
					}
				}
			}
		}
	}
	JOINT RHipJoint
	{
		OFFSET 0 0 0
		CHANNELS 3 Zrotation Yrotation Xrotation
		JOINT RightHip
		{
			OFFSET -1.61527 -1.94743 0.52196
			CHANNELS 3 Zrotation Yrotation Xrotation
			JOINT RightKnee
			{
				OFFSET -2.53829 -6.97390 0.00000
				CHANNELS 3 Zrotation Yrotation Xrotation
				JOINT RightAnkle
				{
					OFFSET -2.80762 -7.71387 0.00000
					CHANNELS 3 Zrotation Yrotation Xrotation
					JOINT RightToe
					{
						OFFSET -0.30536 -0.83898 2.28801
						CHANNELS 3 Zrotation Yrotation Xrotation
						End Site
						{
							OFFSET -0.00000 -0.00000 1.21323
						}
					}
				}
			}
		}
	}
	JOINT lowerback
	{
		OFFSET 0 0 0
		CHANNELS 3 Zrotation Yrotation Xrotation
		JOINT Chest
		{
			OFFSET -0.04381 1.99497 -0.19778
			CHANNELS 3 Zrotation Yrotation Xrotation
			JOINT Chest2
			{
				OFFSET -0.01959 2.01295 -0.04372
				CHANNELS 3 Zrotation Yrotation Xrotation
				JOINT lowerneck
				{
					OFFSET 0 0 0
					CHANNELS 3 Zrotation Yrotation Xrotation
					JOINT Neck
					{
						OFFSET -0.05459 1.76913 0.09708
						CHANNELS 3 Zrotation Yrotation Xrotation
						JOINT Head
						{
							OFFSET 0.09461 1.77368 -0.11172
							CHANNELS 3 Zrotation Yrotation Xrotation
							End Site
							{
								OFFSET 0.03812 1.78157 -0.04834
							}
						}
					}
				}
				JOINT LeftCollar
				{
					OFFSET 0 0 0
					CHANNELS 3 Zrotation Yrotation Xrotation
					JOINT LeftShoulder
					{
						OFFSET 3.50922 1.24034 -0.28866
CHANNELS 3 Zrotation Xrotation Yrotation
						JOINT LeftElbow
						{
OFFSET 0 -5.401880 0.000000
CHANNELS 3 Zrotation Xrotation Yrotation
							JOINT LeftWrist
							{
OFFSET 0 -3.685590 0.000000
CHANNELS 3 Zrotation Xrotation Yrotation
								JOINT lhand
								{
									OFFSET 0 0 0
CHANNELS 3 Zrotation Xrotation Yrotation
									JOINT LFingers
									{
OFFSET 0 -0.617530 0.000000
CHANNELS 3 Zrotation Xrotation Yrotation
										End Site
										{
OFFSET 0 -0.497870 0.000000
										}
									}
								}
								JOINT LThumb
								{
OFFSET 0 0.000000 0.000000
CHANNELS 3 Zrotation Xrotation Yrotation
									End Site
									{
OFFSET 0 -0.505470 0.505470
									}
								}
							}
						}
					}
				}
				JOINT RightCollar
				{
					OFFSET 0 0 0
					CHANNELS 3 Zrotation Yrotation Xrotation
					JOINT RightShoulder
					{
						OFFSET -2.95373 1.39649 -0.27346
CHANNELS 3 Zrotation Xrotation Yrotation
						JOINT RightElbow
						{
OFFSET 0 -6.106700 -0.000000
CHANNELS 3 Zrotation Xrotation Yrotation
							JOINT RightWrist
							{
OFFSET 0 -3.630520 0.000000
CHANNELS 3 Zrotation Xrotation Yrotation
								JOINT rhand
								{
									OFFSET 0 0 0
CHANNELS 3 Zrotation Xrotation Yrotation
									JOINT RFingers
									{
OFFSET 0 -0.583850 0.000000
CHANNELS 3 Zrotation Xrotation Yrotation
										End Site
										{
OFFSET 0 -0.470710 0.000000
										}
									}
								}
								JOINT RThumb
								{
OFFSET 0 0.000000 0.000000
CHANNELS 3 Zrotation Xrotation Yrotation
									End Site
									{
OFFSET 0 -0.477900 0.477900
									}
								}
							}
						}
					}
				}
			}
		}
	}
}
MOTION
Frames: 5
Frame Time: 0.008333333333333333
1.180303 23.316413 0.839312 0.882419 -1.930578 1.353613 0.000000 0.000000 0.000000 -21.593795 2.117720 0.148575 0.636390 5.098700 14.191373 -2.042157 27.939968 4.207442 0.444324 4.251331 11.788423 0.000000 0.000000 0.000000 19.964963 7.238951 -0.051002 -1.333346 -7.304486 20.624005 3.032986 -32.517856 3.340372 -0.230829 -3.091977 8.534808 0.667470 0.973444 5.077613 0.467714 1.366585 -1.978501 -0.014878 0.664276 -4.891613 -8.094820 -3.566384 -12.676638 7.180787 -4.211517 8.846606 3.217538 -1.876187 5.054645 0.000000 0.000000 0.000000 57.515829 9.980848 -12.974758 131.259449 -52.455964 94.823104 37.283547 -1.605630 -15.347683 0.000000 0.000000 0.000000 -7.125000 0.000000 0.000000 9.515382 48.777278 -0.894222 0.000000 0.000000 0.000000 -70.982802 -9.175128 9.369670 -55.877958 -55.101863 -30.936256 -35.500013 5.030337 -3.674909 0.000000 0.000000 0.000000 7.125000 0.000000 0.000000 -6.684972 25.466824 -3.176115
1.177108 23.512639 0.815537 1.025257 -1.662534 0.684640 0.000000 0.000000 0.000000 -21.710584 2.783561 0.215724 0.712570 5.393100 15.033718 -1.505270 26.938504 8.021126 0.323173 3.643793 10.077868 0.000000 0.000000 0.000000 19.999490 6.543253 -0.150405 -1.489639 -7.708057 21.832016 2.433557 -31.190967 6.326517 -0.223887 -3.045532 8.405425 0.390211 0.865931 6.405239 0.404743 1.209555 -1.728704 0.069166 0.592027 -5.390840 -8.319061 -3.640353 -12.659313 7.674362 -4.292551 8.011817 3.402214 -1.892160 4.816336 0.000000 0.000000 0.000000 56.450288 11.883144 -10.798275 129.241347 -53.290691 93.217113 36.960641 -0.972289 -15.349649 0.000000 0.000000 0.000000 -7.125000 0.000000 0.000000 9.187745 48.720634 -0.849865 0.000000 0.000000 0.000000 -70.004807 -7.550583 8.881010 -54.649673 -54.704988 -29.930369 -36.036838 5.722410 -2.965326 0.000000 0.000000 0.000000 7.125000 0.000000 0.000000 -7.160116 26.303271 -3.268146
1.167215 23.706721 0.783883 0.979836 -1.259016 0.033511 0.000000 0.000000 0.000000 -21.571645 3.245119 0.264224 0.791966 5.675657 15.847554 -0.936497 24.961876 10.732317 0.307164 3.563092 9.850665 0.000000 0.000000 0.000000 20.351105 6.229271 -0.148792 -1.650486 -8.089442 22.990081 2.075442 -30.350294 8.036165 -0.165927 -2.590039 7.141126 0.217236 0.727926 7.764536 0.417814 1.015495 -1.432015 0.186918 0.500755 -5.855823 -8.385695 -3.694386 -12.777944 7.919818 -4.338966 7.355427 3.484748 -1.900095 4.644960 0.000000 0.000000 0.000000 55.191879 13.427999 -8.553519 126.481622 -54.280827 90.981554 36.785587 -0.161138 -15.438805 0.000000 0.000000 0.000000 -7.125000 0.000000 0.000000 9.011391 48.795338 -0.849666 0.000000 0.000000 0.000000 -68.996694 -6.004225 8.135765 -53.216999 -54.203239 -28.766608 -36.259737 6.151896 -2.385054 0.000000 0.000000 0.000000 7.125000 0.000000 0.000000 -7.388963 27.005102 -3.251230
1.155304 23.900128 0.753105 0.906309 -0.830539 -0.562387 0.000000 0.000000 0.000000 -21.401483 3.612925 0.272055 0.869714 5.944414 16.623709 -0.444267 23.336219 13.094271 0.278197 3.356811 9.276716 0.000000 0.000000 0.000000 20.747870 6.039604 -0.161026 -1.807193 -8.449925 24.090756 1.830338 -29.845147 9.299624 -0.107801 -2.104810 5.795699 0.050591 0.592864 9.051438 0.443522 0.823271 -1.148415 0.318455 0.411024 -6.292128 -8.383186 -3.739626 -12.933520 8.058583 -4.376075 6.814347 3.522954 -1.907288 4.510474 0.000000 0.000000 0.000000 53.881371 14.839774 -6.344728 123.381550 -55.308713 88.449806 36.628321 0.585911 -15.554580 0.000000 0.000000 0.000000 -7.125000 0.000000 0.000000 8.853130 48.904944 -0.858577 0.000000 0.000000 0.000000 -67.962957 -4.488847 7.335537 -51.660868 -53.634869 -27.508543 -36.362959 6.400662 -1.942429 0.000000 0.000000 0.000000 7.125000 0.000000 0.000000 -7.513264 27.544290 -3.212923
1.140191 24.092422 0.728592 0.831112 -0.386236 -0.995754 0.000000 0.000000 0.000000 -21.250536 3.783532 0.162700 0.940918 6.175904 17.296369 -0.202886 23.235710 14.876092 0.161654 2.524357 6.960835 0.000000 0.000000 0.000000 21.140690 6.061291 -0.261719 -1.949048 -8.755875 25.036743 1.825177 -30.156503 9.762173 -0.072229 -1.712727 4.712955 -0.143669 0.480683 10.100391 0.473872 0.653462 -0.926447 0.477328 0.334659 -6.655336 -8.238382 -3.766719 -13.141726 7.980007 -4.400096 6.548760 3.470426 -1.915828 4.459667 0.000000 0.000000 0.000000 52.497162 16.002138 -4.277907 119.565592 -56.382917 85.287894 36.459127 1.054543 -15.713145 0.000000 0.000000 0.000000 -7.125000 0.000000 0.000000 8.682339 49.062957 -0.875656 0.000000 0.000000 0.000000 -66.863687 -3.033803 6.481519 -49.815830 -52.908146 -26.030583 -36.238490 6.209966 -1.866494 0.000000 0.000000 0.000000 7.125000 0.000000 0.000000 -7.426026 27.641973 -3.157815
